<svg width="28" height="28" viewBox="0 0 28 28" fill="none" xmlns="http://www.w3.org/2000/svg">
<circle cx="14" cy="14" r="13.5" stroke="#333052"/>
<path d="M12.5871 16.114V16.0209C12.5936 15.4134 12.654 14.9299 12.7684 14.5706C12.886 14.2113 13.0526 13.9206 13.2681 13.6985C13.4837 13.4763 13.7434 13.2738 14.0472 13.0909C14.2432 12.9668 14.4196 12.8279 14.5764 12.6744C14.7332 12.5209 14.8573 12.3445 14.9488 12.1452C15.0402 11.946 15.086 11.7255 15.086 11.4838C15.086 11.193 15.0174 10.9415 14.8802 10.7292C14.743 10.5169 14.56 10.3536 14.3314 10.2392C14.106 10.1216 13.8545 10.0628 13.5768 10.0628C13.3253 10.0628 13.0852 10.1151 12.8566 10.2196C12.6279 10.3242 12.4384 10.4875 12.2882 10.7096C12.1379 10.9285 12.0514 11.211 12.0285 11.5573H10.539C10.5618 10.9693 10.7105 10.4728 10.9849 10.0677C11.2592 9.65942 11.6218 9.35073 12.0726 9.14168C12.5266 8.93262 13.0281 8.82809 13.5768 8.82809C14.1779 8.82809 14.7038 8.94079 15.1546 9.16618C15.6053 9.3883 15.9548 9.70025 16.2031 10.102C16.4546 10.5005 16.5804 10.966 16.5804 11.4985C16.5804 11.8643 16.5232 12.1942 16.4089 12.4882C16.2946 12.7789 16.1312 13.0386 15.9189 13.2673C15.7099 13.4959 15.4583 13.6985 15.1644 13.8748C14.8867 14.048 14.6613 14.2276 14.4882 14.4138C14.3183 14.6 14.1942 14.8205 14.1158 15.0753C14.0374 15.3301 13.9949 15.6453 13.9884 16.0209V16.114H12.5871ZM13.3269 19.0931C13.0591 19.0931 12.8288 18.9984 12.6361 18.8089C12.4433 18.6162 12.347 18.3843 12.347 18.1131C12.347 17.8453 12.4433 17.6166 12.6361 17.4272C12.8288 17.2345 13.0591 17.1381 13.3269 17.1381C13.5915 17.1381 13.8202 17.2345 14.0129 17.4272C14.2089 17.6166 14.3069 17.8453 14.3069 18.1131C14.3069 18.2928 14.2612 18.4578 14.1697 18.608C14.0815 18.755 13.9639 18.8726 13.8169 18.9608C13.6699 19.049 13.5066 19.0931 13.3269 19.0931Z" fill="#39196D"/>
</svg>
