<svg width="26" height="27" viewBox="0 0 26 27" fill="none" xmlns="http://www.w3.org/2000/svg">
<path d="M3.59916 15.3498C3.7188 16.0754 3.60873 16.8346 3.18161 17.4331L1.53056 19.7445C0.850995 20.6962 0.958687 22.0001 1.78541 22.8273L3.99517 25.0366C4.82189 25.8637 6.12601 25.9716 7.07835 25.2916L9.38983 23.6404C9.98804 23.213 10.7465 23.1029 11.4727 23.2227C11.9836 23.3069 12.5077 23.3507 13.0425 23.3507C13.5773 23.3507 14.1013 23.3069 14.6122 23.2226C15.3384 23.1029 16.0969 23.2129 16.6951 23.6404L19.0066 25.2914C19.9589 25.9713 21.263 25.8634 22.0897 25.0362L24.2995 22.8269C25.1262 21.9998 25.2339 20.696 24.5544 19.7441L22.9033 17.433C22.4762 16.8346 22.3661 16.0754 22.4857 15.3497C22.5695 14.8388 22.6138 14.3142 22.6138 13.7794C22.6138 13.2448 22.5695 12.7203 22.4857 12.2096C22.3661 11.484 22.4762 10.725 22.9033 10.1264L24.5544 7.81553C25.2339 6.86366 25.1262 5.55981 24.2983 4.73273L22.0897 2.52343C21.263 1.69635 19.9589 1.58844 19.0066 2.26824L16.6963 3.91869C16.0981 4.34617 15.3384 4.45612 14.6133 4.33636C14.1025 4.25201 13.5773 4.2081 13.0425 4.2081C12.5077 4.2081 11.9824 4.25201 11.4716 4.33636C10.7466 4.45612 9.9868 4.34617 9.38859 3.91857L7.07835 2.268C6.12601 1.5882 4.82189 1.69611 3.99517 2.52319L1.78541 4.73249C0.958687 5.55957 0.850995 6.86342 1.53056 7.81529L3.18161 10.1264C3.60873 10.7248 3.7188 11.4838 3.59916 12.2096C3.51541 12.7203 3.47115 13.2447 3.47115 13.7794C3.47115 14.3143 3.51541 14.8388 3.59916 15.3498V15.3498Z" stroke="#424242" stroke-width="1.79462" stroke-linecap="round" stroke-linejoin="round"/>
<path d="M16.6284 13.7768C16.6284 15.7591 15.0216 17.366 13.0392 17.366C11.0567 17.366 9.44995 15.7591 9.44995 13.7768C9.44995 11.7945 11.0567 10.1876 13.0392 10.1876C15.0216 10.1876 16.6284 11.7945 16.6284 13.7768Z" stroke="#424242" stroke-width="1.79462" stroke-linecap="round" stroke-linejoin="round"/>
</svg>
